<?xml version="1.0" encoding="utf-8"?>
<!-- Generator: Adobe Illustrator 25.0.1, SVG Export Plug-In . SVG Version: 6.00 Build 0)  -->
<svg version="1.0" id="Layer_1" xmlns="http://www.w3.org/2000/svg" xmlns:xlink="http://www.w3.org/1999/xlink" x="0px" y="0px"
	 viewBox="0 0 61 45.3" style="enable-background:new 0 0 61 45.3;" xml:space="preserve">
<style type="text/css">
	.st0{fill-rule:evenodd;clip-rule:evenodd;fill:#633001;}
	.st1{fill:#FEDC90;}
	.st2{fill-rule:evenodd;clip-rule:evenodd;fill:#D1884F;}
	.st3{fill:#633001;}
</style>
<path class="st0" d="M20.4,11.7c-0.5-2.6,1.5-5,4.1-5c2.3,0,4.2,1.9,4.2,4.2v5.2c0.6,0,1.2-0.1,1.8-0.1c0.6,0,1.1,0,1.7,0.1v-5.2
	c0-2.3,1.9-4.2,4.2-4.2c2.6,0,4.6,2.4,4.2,5l-1.1,6.1c3.9,1.7,6.9,4.7,6.9,8.4v2.3c0,3.1-2,5.7-4.9,7.4c-2.9,1.8-6.7,2.8-11,2.8
	s-8.1-1-11-2.8c-2.8-1.7-4.8-4.3-4.8-7.4v-2.3c0-3.7,2.9-6.7,6.8-8.4L20.4,11.7z M38,18.6l1.3-7.2c0.3-1.8-1-3.5-2.9-3.5
	c-1.6,0-2.9,1.3-2.9,2.9v6.6c-0.4-0.1-0.9-0.1-1.3-0.1c-0.6,0-1.1-0.1-1.7-0.1c-0.6,0-1.2,0-1.8,0.1c-0.4,0-0.9,0.1-1.3,0.1v-6.5
	c0-1.6-1.3-2.9-2.9-2.9c-1.8,0-3.2,1.7-2.8,3.5l1.3,7.2c-4.2,1.6-7,4.4-7,7.6v2.3c0,4.9,6.5,8.9,14.5,8.9s14.5-4,14.5-8.9v-2.3
	C45.1,23,42.3,20.2,38,18.6z"/>
<path class="st1" d="M45.1,28.5c0,4.9-6.5,8.9-14.5,8.9s-14.5-4-14.5-8.9v-2.3h29.1v2.3H45.1z"/>
<path class="st2" d="M21.7,11.5c-0.4-1.8,1-3.5,2.8-3.5c1.6,0,2.9,1.3,2.9,2.9v6.6c1-0.1,2-0.2,3.1-0.2c1,0,2,0.1,3,0.2v-6.6
	c0-1.6,1.3-2.9,2.9-2.9c1.8,0,3.2,1.7,2.9,3.5L38,18.7c4.2,1.6,7.1,4.4,7.1,7.6c0,4.9-6.5,8.9-14.5,8.9s-14.5-4-14.5-8.9
	c0-3.2,2.8-6,7-7.6L21.7,11.5z"/>
<path class="st3" d="M26.5,25.6c0,1.3-0.7,2.4-1.6,2.4s-1.6-1.1-1.6-2.4s0.7-2.4,1.6-2.4C25.8,23.2,26.5,24.3,26.5,25.6z"/>
<path class="st3" d="M37.6,25.6c0,1.3-0.7,2.4-1.6,2.4c-0.9,0-1.6-1.1-1.6-2.4s0.7-2.4,1.6-2.4S37.6,24.3,37.6,25.6z"/>
</svg>
